<svg width="64" height="64" viewBox="0 0 64 64" xmlns="http://www.w3.org/2000/svg" fill="none">
  <rect width="64" height="64" rx="14" fill="#0f172a"/>
  <g stroke="#ffffff" stroke-width="2.2" stroke-linecap="round" stroke-linejoin="round">
    <path d="M10 45c7-2 13-2 22 0 9-2 15-2 22 0"/>
    <path d="M13 42V19c6-2 12-1 17 3v20c-6-2-12-2-17 0z"/>
    <path d="M51 42V19c-6-2-12-1-17 3v20c6-2 12-2 17 0z"/>
    <path d="M31 40c3-11 9-19 18-25"/>
    <path d="M35 33c6-3 10-5 14-5"/>
  </g>
</svg>
